<svg xmlns="http://www.w3.org/2000/svg" viewBox="0 0 1200 630">
  <defs>
    <linearGradient id="bg" x1="0" y1="0" x2="1" y2="1">
      <stop offset="0%" stop-color="#050818" />
      <stop offset="100%" stop-color="#1A1A2E" />
    </linearGradient>
    <linearGradient id="wg" x1="0" y1="0" x2="1" y2="0">
      <stop offset="0%" stop-color="#5BC0EB" />
      <stop offset="55%" stop-color="#F0EAD6" />
      <stop offset="100%" stop-color="#D4AF37" />
    </linearGradient>
  </defs>
  <rect width="1200" height="630" fill="url(#bg)" />
  <g opacity="0.13" stroke="#5BC0EB" stroke-width="1">
    <path d="M0 60 H1200" />
    <path d="M0 120 H1200" />
    <path d="M0 180 H1200" />
    <path d="M0 240 H1200" />
    <path d="M0 300 H1200" />
    <path d="M0 360 H1200" />
    <path d="M0 420 H1200" />
    <path d="M0 480 H1200" />
    <path d="M0 540 H1200" />
    <path d="M60 0 V630" />
    <path d="M120 0 V630" />
    <path d="M180 0 V630" />
    <path d="M240 0 V630" />
    <path d="M300 0 V630" />
    <path d="M360 0 V630" />
    <path d="M420 0 V630" />
    <path d="M480 0 V630" />
    <path d="M540 0 V630" />
    <path d="M600 0 V630" />
    <path d="M660 0 V630" />
    <path d="M720 0 V630" />
    <path d="M780 0 V630" />
    <path d="M840 0 V630" />
    <path d="M900 0 V630" />
    <path d="M960 0 V630" />
    <path d="M1020 0 V630" />
    <path d="M1080 0 V630" />
    <path d="M1140 0 V630" />
  </g>
  <text x="80" y="220" font-family="Space Mono, ui-monospace, monospace" font-size="102" fill="#F0EAD6">
    wattz
  </text>
  <text x="80" y="310" font-family="Space Mono, ui-monospace, monospace" font-size="52" fill="url(#wg)">
    Power the inference.
  </text>
  <text x="80" y="390" font-family="JetBrains Mono, ui-monospace, monospace" font-size="26" fill="#8B8680">
    Solana AI inference marketplace
  </text>
  <text x="80" y="430" font-family="JetBrains Mono, ui-monospace, monospace" font-size="22" fill="#5BC0EB">
    openai-compatible - tee verified - anchor 0.31 - token-2022 streaming
  </text>
  <g transform="translate(80 500)">
    <rect x="0" y="0" width="360" height="60" rx="6" fill="#0A0E27" stroke="#5BC0EB" stroke-width="1.2" />
    <text x="24" y="38" font-family="JetBrains Mono, ui-monospace, monospace" font-size="22" fill="#F0EAD6">
      baseURL: https://api.wattz.fi/v1
    </text>
  </g>
</svg>
